<svg xmlns="http://www.w3.org/2000/svg" width="96" height="96" fill="none" viewBox="0 0 96 96"><g clip-path="url(#a)"><g clip-path="url(#b)"><g clip-path="url(#c)"><path fill="url(#d)" d="M13.878 21.824C29.103 8.138 49.75 8.186 62.955 18.914c12.027 9.77 14.515 25.402 7.896 36.866s-18.323 14.365-31.35 6.845L31.73 76.087h-.006c-4.305 7.445-13.83 9.996-21.28 5.695a15.5 15.5 0 0 1-6.476-7.231H3.96C-4.08 55.781.2 34.118 13.877 21.824"/><path fill="url(#e)" fill-opacity=".8" d="M13.878 21.824C29.103 8.138 49.75 8.186 62.955 18.914c12.027 9.77 14.515 25.402 7.896 36.866s-18.323 14.365-31.35 6.845L31.73 76.087h-.006c-4.305 7.445-13.83 9.996-21.28 5.695a15.5 15.5 0 0 1-6.476-7.231H3.96C-4.08 55.781.2 34.118 13.877 21.824"/><path fill="url(#f)" d="M85.433 14.223a15.5 15.5 0 0 1 6.516 7.32l.004.001c7.988 18.75 3.7 40.363-9.955 52.637-15.225 13.687-35.872 13.639-49.077 2.911-12.026-9.77-14.515-25.402-7.896-36.866 6.619-11.465 18.323-14.366 31.35-6.845l7.768-13.455.005-.001c4.304-7.451 13.833-10.004 21.285-5.702"/><path fill="url(#g)" fill-opacity=".9" d="M85.433 14.223a15.5 15.5 0 0 1 6.516 7.32l.004.001c7.988 18.75 3.7 40.363-9.955 52.637-15.225 13.687-35.872 13.639-49.077 2.911-12.026-9.77-14.515-25.402-7.896-36.866 6.619-11.465 18.323-14.366 31.35-6.845l7.768-13.455.005-.001c4.304-7.451 13.833-10.004 21.285-5.702"/><path fill="url(#h)" d="M39.504 62.626c13.027 7.52 24.731 4.62 31.35-6.845 6.395-11.075 4.289-26.042-6.707-35.854l-7.768 13.454z"/><path fill="url(#i)" d="M56.38 33.382c-13.027-7.521-24.732-4.62-31.35 6.844-6.395 11.076-4.29 26.043 6.706 35.855l7.768-13.455z"/><path fill="url(#j)" d="M33.322 56.445c4.662 8.075 14.987 10.842 23.063 6.18s10.842-14.988 6.18-23.063-14.99-10.842-23.065-6.18-10.84 14.988-6.179 23.063"/></g></g></g><defs><radialGradient id="d" cx="0" cy="0" r="1" gradientTransform="rotate(211.283 29.93 18.31)scale(46.2195 47.5359)" gradientUnits="userSpaceOnUse"><stop offset=".465" stop-color="#09442a"/><stop offset=".701" stop-color="#136c6c"/><stop offset="1" stop-color="#22918b"/></radialGradient><radialGradient id="e" cx="0" cy="0" r="1" gradientTransform="rotate(123.57 16.282 29.663)scale(66.0095 46.5498)" gradientUnits="userSpaceOnUse"><stop offset=".719" stop-color="#1a7f7c" stop-opacity="0"/><stop offset="1" stop-color="#16bbda"/></radialGradient><radialGradient id="f" cx="0" cy="0" r="1" gradientTransform="rotate(30.75 -55.666 114.076)scale(45.9618 44.5095)" gradientUnits="userSpaceOnUse"><stop offset=".358" stop-color="#136c6c"/><stop offset=".789" stop-color="#42b870"/><stop offset="1" stop-color="#76d45e"/></radialGradient><radialGradient id="g" cx="0" cy="0" r="1" gradientTransform="matrix(42.5 -36.0002 31.1824 36.8127 49.5 55.5)" gradientUnits="userSpaceOnUse"><stop offset=".583" stop-color="#76d45e" stop-opacity="0"/><stop offset="1" stop-color="#c8f5b7"/></radialGradient><radialGradient id="h" cx="0" cy="0" r="1" gradientTransform="rotate(-58.904 66.253 -18.06)scale(32.6898)" gradientUnits="userSpaceOnUse"><stop offset=".486" stop-color="#22918b"/><stop offset=".73" stop-color="#42b870"/><stop offset="1" stop-color="#43e5ca"/></radialGradient><radialGradient id="i" cx="0" cy="0" r="1" gradientTransform="rotate(119.859 9.504 38.221)scale(31.1328 29.4032)" gradientUnits="userSpaceOnUse"><stop offset=".46" stop-color="#08494e"/><stop offset=".742" stop-color="#1a7f7c"/><stop offset="1" stop-color="#309c61"/></radialGradient><radialGradient id="j" cx="0" cy="0" r="1" gradientTransform="rotate(120.784 14.885 34.917)scale(27.3542)" gradientUnits="userSpaceOnUse"><stop stop-color="#c8f5b7"/><stop offset=".246" stop-color="#98f0b0"/><stop offset=".644" stop-color="#52d17c"/><stop offset="1" stop-color="#119fc5"/></radialGradient><clipPath id="a"><path fill="#fff" d="M0 0h96v96H0z"/></clipPath><clipPath id="b"><path fill="#fff" d="M0 0h96v96H0z"/></clipPath><clipPath id="c"><path fill="#fff" d="M0 0h96v96H0z"/></clipPath></defs></svg>